<?xml version="1.0" encoding="iso-8859-1"?>
<!DOCTYPE svg PUBLIC "-//W3C//DTD SVG 1.0//EN" "http://www.w3.org/TR/2001/REC-SVG-20010904/DTD/svg10.dtd">
<svg width="1640" height="901" xmlns="http://www.w3.org/2000/svg" xmlns:xlink="http://www.w3.org/1999/xlink">
<g style="stroke:black;fill:lightgreen" transform="translate(30,30)">
<line x1="745" y1="555" x2="745" y2="615" style="stroke:blue; stroke-width:1"/>
<line x1="745" y1="615" x2="1109" y2="615" style="stroke:blue; stroke-width:1"/>
<line x1="745" y1="555" x2="745" y2="495" style="stroke:blue; stroke-width:1"/>
<line x1="745" y1="495" x2="1109" y2="495" style="stroke:blue; stroke-width:1"/>
<line x1="380" y1="645" x2="380" y2="735" style="stroke:blue; stroke-width:1"/>
<line x1="380" y1="735" x2="745" y2="735" style="stroke:blue; stroke-width:1"/>
<line x1="16" y1="643" x2="16" y2="855" style="stroke:blue; stroke-width:1"/>
<line x1="16" y1="855" x2="380" y2="855" style="stroke:blue; stroke-width:1"/>
<line x1="1109" y1="76" x2="1109" y2="136" style="stroke:blue; stroke-width:1"/>
<line x1="1109" y1="136" x2="1474" y2="136" style="stroke:blue; stroke-width:1"/>
<line x1="1109" y1="76" x2="1109" y2="16" style="stroke:blue; stroke-width:1"/>
<line x1="1109" y1="16" x2="1474" y2="16" style="stroke:blue; stroke-width:1"/>
<line x1="745" y1="166" x2="745" y2="256" style="stroke:blue; stroke-width:1"/>
<line x1="745" y1="256" x2="1109" y2="256" style="stroke:blue; stroke-width:1"/>
<line x1="380" y1="271" x2="380" y2="376" style="stroke:blue; stroke-width:1"/>
<line x1="380" y1="376" x2="745" y2="376" style="stroke:blue; stroke-width:1"/>
<line x1="380" y1="645" x2="380" y2="555" style="stroke:blue; stroke-width:1"/>
<line x1="380" y1="555" x2="745" y2="555" style="stroke:blue; stroke-width:1"/>
<line x1="16" y1="643" x2="16" y2="645" style="stroke:blue; stroke-width:1"/>
<line x1="16" y1="645" x2="380" y2="645" style="stroke:blue; stroke-width:1"/>
<line x1="745" y1="166" x2="745" y2="76" style="stroke:blue; stroke-width:1"/>
<line x1="745" y1="76" x2="1109" y2="76" style="stroke:blue; stroke-width:1"/>
<line x1="380" y1="271" x2="380" y2="166" style="stroke:blue; stroke-width:1"/>
<line x1="380" y1="166" x2="745" y2="166" style="stroke:blue; stroke-width:1"/>
<line x1="16" y1="643" x2="16" y2="271" style="stroke:blue; stroke-width:1"/>
<line x1="16" y1="271" x2="380" y2="271" style="stroke:blue; stroke-width:1"/>
<text x="384" y="862" font-weight = "10" font-family="verdana" fill="black" font-size="18">B3</text>
<text x="749" y="742" font-weight = "10" font-family="verdana" fill="black" font-size="18">B1</text>
<text x="1113" y="622" font-weight = "10" font-family="verdana" fill="black" font-size="18">B4</text>
<text x="1113" y="502" font-weight = "10" font-family="verdana" fill="black" font-size="18">M3</text>
<text x="749" y="383" font-weight = "10" font-family="verdana" fill="black" font-size="18">M1</text>
<text x="1113" y="263" font-weight = "10" font-family="verdana" fill="black" font-size="18">B2</text>
<text x="1478" y="143" font-weight = "10" font-family="verdana" fill="black" font-size="18">M2</text>
<text x="1478" y="23" font-weight = "10" font-family="verdana" fill="black" font-size="18">M4</text>
</g></svg>